<?xml version="1.0" encoding="utf-8"?>
<!-- Generator: Adobe Illustrator 27.5.0, SVG Export Plug-In . SVG Version: 6.00 Build 0)  -->
<svg version="1.1" xmlns="http://www.w3.org/2000/svg" xmlns:xlink="http://www.w3.org/1999/xlink" x="0px" y="0px"
	 viewBox="0 0 500 500" style="enable-background:new 0 0 500 500;" xml:space="preserve">
<g id="Background_Complete">
	<g>
		<rect y="382.398" style="fill:#EBEBEB;" width="500" height="0.25"/>
		<rect x="416.779" y="398.494" style="fill:#EBEBEB;" width="33.122" height="0.25"/>
		<rect x="322.527" y="401.208" style="fill:#EBEBEB;" width="8.693" height="0.25"/>
		<rect x="396.586" y="389.208" style="fill:#EBEBEB;" width="19.192" height="0.25"/>
		<rect x="52.459" y="390.888" style="fill:#EBEBEB;" width="43.193" height="0.25"/>
		<rect x="104.556" y="390.888" style="fill:#EBEBEB;" width="6.333" height="0.25"/>
		<rect x="131.471" y="395.111" style="fill:#EBEBEB;" width="93.676" height="0.25"/>
		<path style="fill:#EBEBEB;" d="M237.014,337.8H43.915c-3.147,0-5.708-2.561-5.708-5.708V60.66c0-3.147,2.561-5.708,5.708-5.708
			h193.099c3.146,0,5.707,2.561,5.707,5.708v271.432C242.721,335.239,240.16,337.8,237.014,337.8z M43.915,55.203
			c-3.01,0-5.458,2.448-5.458,5.458v271.432c0,3.01,2.448,5.458,5.458,5.458h193.099c3.009,0,5.457-2.448,5.457-5.458V60.66
			c0-3.009-2.448-5.458-5.457-5.458H43.915z"/>
		<path style="fill:#EBEBEB;" d="M453.31,337.8H260.212c-3.147,0-5.707-2.561-5.707-5.708V60.66c0-3.147,2.561-5.708,5.707-5.708
			H453.31c3.148,0,5.708,2.561,5.708,5.708v271.432C459.019,335.239,456.458,337.8,453.31,337.8z M260.212,55.203
			c-3.009,0-5.457,2.448-5.457,5.458v271.432c0,3.01,2.448,5.458,5.457,5.458H453.31c3.01,0,5.458-2.448,5.458-5.458V60.66
			c0-3.009-2.448-5.458-5.458-5.458H260.212z"/>
	</g>
	<g>
		<g>
			<g>
				
					<rect x="301.093" y="78.791" transform="matrix(-1 -1.224647e-16 1.224647e-16 -1 710.9934 354.2004)" style="fill:#E6E6E6;" width="108.807" height="196.618"/>
				
					<rect x="296.073" y="78.791" transform="matrix(-1 -1.224647e-16 1.224647e-16 -1 703.6268 354.2004)" style="fill:#F0F0F0;" width="111.481" height="196.618"/>
				
					<rect x="301.093" y="275.409" transform="matrix(-1 -1.224647e-16 1.224647e-16 -1 710.9934 555.4829)" style="fill:#E6E6E6;" width="108.807" height="4.665"/>
				
					<rect x="294.264" y="275.409" transform="matrix(-1 -1.224647e-16 1.224647e-16 -1 700.01 555.4829)" style="fill:#F0F0F0;" width="111.481" height="4.665"/>
				
					<rect x="260.533" y="128.388" transform="matrix(-1.836970e-16 1 -1 -1.836970e-16 528.9137 -174.7133)" style="fill:#FAFAFA;" width="182.561" height="97.424"/>
				<polygon style="fill:#FFFFFF;" points="330.658,268.38 358.085,85.82 377.559,85.82 350.132,268.38 				"/>
				<polygon style="fill:#FFFFFF;" points="333.75,268.38 361.176,85.82 380.65,85.82 353.224,268.38 				"/>
				<polygon style="fill:#FFFFFF;" points="354.315,268.38 381.742,85.82 389.334,85.82 361.908,268.38 				"/>
				
					<rect x="212.268" y="176.654" transform="matrix(-1.836970e-16 1 -1 -1.836970e-16 480.648 -126.4476)" style="fill:#E6E6E6;" width="182.561" height="0.892"/>
				<polygon style="opacity:0.6;fill:#EBEBEB;" points="294.411,91.117 403.217,91.117 403.864,88.552 295.058,88.552 				"/>
				<polygon style="opacity:0.6;fill:#EBEBEB;" points="294.411,95.325 403.217,95.325 403.864,92.759 295.058,92.759 				"/>
				<polygon style="opacity:0.6;fill:#EBEBEB;" points="294.411,99.532 403.217,99.532 403.864,96.966 295.058,96.966 				"/>
				<polygon style="opacity:0.6;fill:#EBEBEB;" points="294.411,103.739 403.217,103.739 403.864,101.174 295.058,101.174 				"/>
				<polygon style="opacity:0.6;fill:#EBEBEB;" points="294.411,107.946 403.217,107.946 403.864,105.381 295.058,105.381 				"/>
				<polygon style="opacity:0.6;fill:#EBEBEB;" points="294.411,112.153 403.217,112.153 403.864,109.588 295.058,109.588 				"/>
			</g>
			<rect x="274.528" y="67" style="fill:#F0F0F0;" width="156.916" height="3.791"/>
			<g>
				<g>
					<rect x="420.362" y="63.808" style="opacity:0.8;fill:#FAFAFA;" width="8.249" height="242.836"/>
					<rect x="420.362" y="63.808" style="opacity:0.8;fill:#F0F0F0;" width="2.136" height="242.836"/>
				</g>
				<g>
					<rect x="412.113" y="63.808" style="opacity:0.8;fill:#FAFAFA;" width="8.249" height="242.836"/>
					<rect x="412.113" y="63.808" style="opacity:0.8;fill:#F0F0F0;" width="2.136" height="242.836"/>
				</g>
				<g>
					<rect x="403.864" y="63.808" style="opacity:0.8;fill:#FAFAFA;" width="8.249" height="242.836"/>
				</g>
			</g>
			<g>
				<g>
					<rect x="292.844" y="63.808" style="opacity:0.8;fill:#FAFAFA;" width="8.249" height="242.836"/>
					<rect x="292.844" y="63.808" style="opacity:0.8;fill:#F0F0F0;" width="2.135" height="242.836"/>
				</g>
				<g>
					<rect x="284.595" y="63.808" style="opacity:0.8;fill:#FAFAFA;" width="8.249" height="242.836"/>
					<rect x="284.595" y="63.808" style="opacity:0.8;fill:#F0F0F0;" width="2.135" height="242.836"/>
				</g>
				<g>
					<rect x="276.346" y="63.808" style="opacity:0.8;fill:#FAFAFA;" width="8.249" height="242.836"/>
				</g>
			</g>
		</g>
		<g>
			<g>
				
					<rect x="85.341" y="78.791" transform="matrix(-1 -1.224647e-16 1.224647e-16 -1 279.4881 354.2004)" style="fill:#E6E6E6;" width="108.807" height="196.618"/>
				
					<rect x="80.32" y="78.791" transform="matrix(-1 -1.224647e-16 1.224647e-16 -1 272.1216 354.2004)" style="fill:#F0F0F0;" width="111.481" height="196.618"/>
				
					<rect x="85.341" y="275.409" transform="matrix(-1 -1.224647e-16 1.224647e-16 -1 279.4881 555.4829)" style="fill:#E6E6E6;" width="108.807" height="4.665"/>
				
					<rect x="78.512" y="275.409" transform="matrix(-1 -1.224647e-16 1.224647e-16 -1 268.5048 555.4829)" style="fill:#F0F0F0;" width="111.481" height="4.665"/>
				
					<rect x="44.781" y="128.388" transform="matrix(-1.836970e-16 1 -1 -1.836970e-16 313.1611 41.0393)" style="fill:#FAFAFA;" width="182.561" height="97.424"/>
				<polygon style="fill:#FFFFFF;" points="114.905,268.38 142.332,85.82 161.806,85.82 134.379,268.38 				"/>
				<polygon style="fill:#FFFFFF;" points="117.997,268.38 145.424,85.82 164.898,85.82 137.471,268.38 				"/>
				<polygon style="fill:#FFFFFF;" points="138.563,268.38 165.99,85.82 173.582,85.82 146.155,268.38 				"/>
				
					<rect x="-3.485" y="176.654" transform="matrix(-1.836970e-16 1 -1 -1.836970e-16 264.8954 89.3049)" style="fill:#E6E6E6;" width="182.561" height="0.892"/>
				<polygon style="opacity:0.6;fill:#EBEBEB;" points="78.658,91.117 187.465,91.117 188.111,88.552 79.305,88.552 				"/>
				<polygon style="opacity:0.6;fill:#EBEBEB;" points="78.658,95.325 187.465,95.325 188.111,92.759 79.305,92.759 				"/>
				<polygon style="opacity:0.6;fill:#EBEBEB;" points="78.658,99.532 187.465,99.532 188.111,96.966 79.305,96.966 				"/>
				<polygon style="opacity:0.6;fill:#EBEBEB;" points="78.658,103.739 187.465,103.739 188.111,101.174 79.305,101.174 				"/>
				<polygon style="opacity:0.6;fill:#EBEBEB;" points="78.658,107.946 187.465,107.946 188.111,105.381 79.305,105.381 				"/>
				<polygon style="opacity:0.6;fill:#EBEBEB;" points="78.658,112.153 187.465,112.153 188.111,109.588 79.305,109.588 				"/>
			</g>
			<rect x="58.776" y="67" style="fill:#F0F0F0;" width="156.916" height="3.791"/>
			<g>
				<g>
					<rect x="204.609" y="63.808" style="opacity:0.8;fill:#FAFAFA;" width="8.249" height="242.836"/>
					<rect x="204.609" y="63.808" style="opacity:0.8;fill:#F0F0F0;" width="2.135" height="242.836"/>
				</g>
				<g>
					<rect x="196.361" y="63.808" style="opacity:0.8;fill:#FAFAFA;" width="8.249" height="242.836"/>
					<rect x="196.361" y="63.808" style="opacity:0.8;fill:#F0F0F0;" width="2.135" height="242.836"/>
				</g>
				<g>
					<rect x="188.111" y="63.808" style="opacity:0.8;fill:#FAFAFA;" width="8.249" height="242.836"/>
				</g>
			</g>
			<g>
				<g>
					<rect x="77.092" y="63.808" style="opacity:0.8;fill:#FAFAFA;" width="8.249" height="242.836"/>
					<rect x="77.092" y="63.808" style="opacity:0.8;fill:#F0F0F0;" width="2.135" height="242.836"/>
				</g>
				<g>
					<rect x="68.843" y="63.808" style="opacity:0.8;fill:#FAFAFA;" width="8.249" height="242.836"/>
					<rect x="68.843" y="63.808" style="opacity:0.8;fill:#F0F0F0;" width="2.135" height="242.836"/>
				</g>
				<g>
					<rect x="60.594" y="63.808" style="opacity:0.8;fill:#FAFAFA;" width="8.249" height="242.836"/>
				</g>
			</g>
		</g>
		<g>
			<g>
				<g>
					
						<rect x="375.764" y="291.612" transform="matrix(-1 -1.224647e-16 1.224647e-16 -1 768.3416 667.221)" style="fill:#F0F0F0;" width="16.814" height="83.997"/>
					
						<rect x="243.983" y="375.609" transform="matrix(-1 -1.224647e-16 1.224647e-16 -1 630.4246 758.0074)" style="fill:#F0F0F0;" width="142.459" height="6.789"/>
					<rect x="237.847" y="291.612" style="fill:#F5F5F5;" width="137.917" height="83.997"/>
					<rect x="250.411" y="300.509" style="fill:#F0F0F0;" width="112.788" height="27.936"/>
					<rect x="250.411" y="334.854" style="fill:#F0F0F0;" width="112.788" height="27.936"/>
					<path style="fill:#F5F5F5;" d="M293.436,304.36h26.738c1.325,0,2.41-1.084,2.41-2.41l0,0c0-1.325-1.084-2.41-2.41-2.41h-26.738
						c-1.325,0-2.41,1.084-2.41,2.41l0,0C291.027,303.276,292.111,304.36,293.436,304.36z"/>
					<path style="fill:#F5F5F5;" d="M293.436,338.706h26.738c1.325,0,2.41-1.084,2.41-2.41l0,0c0-1.325-1.084-2.41-2.41-2.41
						h-26.738c-1.325,0-2.41,1.084-2.41,2.41l0,0C291.027,337.621,292.111,338.706,293.436,338.706z"/>
				</g>
				
					<rect x="233.589" y="288.333" transform="matrix(-1 -1.224647e-16 1.224647e-16 -1 609.3523 579.9454)" style="fill:#F0F0F0;" width="142.175" height="3.279"/>
				<rect x="375.764" y="288.333" style="fill:#E6E6E6;" width="21.28" height="3.279"/>
			</g>
		</g>
		<g>
			<g>
				<path style="fill:#F5F5F5;" d="M108.335,376.828L108.335,376.828c-3.975,0-7.227-3.252-7.227-7.227v-70.762
					c0-3.975,3.252-7.227,7.227-7.227l0,0c3.975,0,7.227,3.252,7.227,7.227v70.762C115.562,373.576,112.31,376.828,108.335,376.828z
					"/>
				<path style="fill:#EBEBEB;" d="M112.472,373.982L112.472,373.982c-2.686,0-4.884-2.198-4.884-4.884v-69.755
					c0-2.686,2.198-4.884,4.884-4.884l0,0c2.686,0,4.884,2.198,4.884,4.884v69.755C117.356,371.784,115.159,373.982,112.472,373.982
					z"/>
			</g>
			<g>
				<path style="fill:#F5F5F5;" d="M118.833,376.828L118.833,376.828c-3.975,0-7.227-3.252-7.227-7.227v-70.762
					c0-3.975,3.252-7.227,7.227-7.227l0,0c3.975,0,7.227,3.252,7.227,7.227v70.762C126.06,373.576,122.808,376.828,118.833,376.828z
					"/>
				<path style="fill:#EBEBEB;" d="M122.971,373.982L122.971,373.982c-2.686,0-4.884-2.198-4.884-4.884v-69.755
					c0-2.686,2.198-4.884,4.884-4.884l0,0c2.686,0,4.884,2.198,4.884,4.884v69.755C127.855,371.784,125.657,373.982,122.971,373.982
					z"/>
			</g>
			<g>
				<path style="fill:#F5F5F5;" d="M129.332,376.828L129.332,376.828c-3.975,0-7.227-3.252-7.227-7.227v-70.762
					c0-3.975,3.252-7.227,7.227-7.227h0c3.975,0,7.227,3.252,7.227,7.227v70.762C136.559,373.576,133.307,376.828,129.332,376.828z"
					/>
				<path style="fill:#EBEBEB;" d="M133.469,373.982L133.469,373.982c-2.686,0-4.884-2.198-4.884-4.884v-69.755
					c0-2.686,2.198-4.884,4.884-4.884l0,0c2.686,0,4.884,2.198,4.884,4.884v69.755C138.353,371.784,136.155,373.982,133.469,373.982
					z"/>
			</g>
			<g>
				<path style="fill:#F5F5F5;" d="M139.83,376.828L139.83,376.828c-3.975,0-7.227-3.252-7.227-7.227v-70.762
					c0-3.975,3.252-7.227,7.227-7.227l0,0c3.975,0,7.227,3.252,7.227,7.227v70.762C147.057,373.576,143.805,376.828,139.83,376.828z
					"/>
				<path style="fill:#EBEBEB;" d="M143.967,373.982L143.967,373.982c-2.686,0-4.884-2.198-4.884-4.884v-69.755
					c0-2.686,2.198-4.884,4.884-4.884l0,0c2.686,0,4.884,2.198,4.884,4.884v69.755C148.852,371.784,146.654,373.982,143.967,373.982
					z"/>
			</g>
			<g>
				<path style="fill:#F5F5F5;" d="M150.329,376.828L150.329,376.828c-3.975,0-7.227-3.252-7.227-7.227v-70.762
					c0-3.975,3.252-7.227,7.227-7.227l0,0c3.975,0,7.227,3.252,7.227,7.227v70.762C157.556,373.576,154.303,376.828,150.329,376.828
					z"/>
				<path style="fill:#EBEBEB;" d="M154.466,373.982L154.466,373.982c-2.686,0-4.884-2.198-4.884-4.884v-69.755
					c0-2.686,2.198-4.884,4.884-4.884l0,0c2.686,0,4.884,2.198,4.884,4.884v69.755C159.35,371.784,157.152,373.982,154.466,373.982z
					"/>
			</g>
			<g>
				<path style="fill:#F5F5F5;" d="M160.827,376.828L160.827,376.828c-3.975,0-7.227-3.252-7.227-7.227v-70.762
					c0-3.975,3.252-7.227,7.227-7.227l0,0c3.975,0,7.227,3.252,7.227,7.227v70.762C168.054,373.576,164.802,376.828,160.827,376.828
					z"/>
				<path style="fill:#EBEBEB;" d="M164.964,373.982L164.964,373.982c-2.686,0-4.884-2.198-4.884-4.884v-69.755
					c0-2.686,2.198-4.884,4.884-4.884l0,0c2.686,0,4.884,2.198,4.884,4.884v69.755C169.848,371.784,167.65,373.982,164.964,373.982z
					"/>
			</g>
			<g>
				<path style="fill:#F5F5F5;" d="M171.325,376.828L171.325,376.828c-3.975,0-7.227-3.252-7.227-7.227v-70.762
					c0-3.975,3.252-7.227,7.227-7.227l0,0c3.975,0,7.227,3.252,7.227,7.227v70.762C178.552,373.576,175.3,376.828,171.325,376.828z"
					/>
			</g>
			<path style="fill:#F5F5F5;" d="M180.186,367.355h-21.198c-0.881,0-1.601-0.721-1.601-1.601v0c0-0.881,0.72-1.601,1.601-1.601
				h21.198c0.881,0,1.601,0.72,1.601,1.601v0C181.787,366.634,181.066,367.355,180.186,367.355z"/>
			<path style="fill:#F5F5F5;" d="M180.186,306.378h-21.198c-0.881,0-1.601-0.721-1.601-1.601l0,0c0-0.881,0.72-1.601,1.601-1.601
				h21.198c0.881,0,1.601,0.72,1.601,1.601l0,0C181.787,305.658,181.066,306.378,180.186,306.378z"/>
		</g>
	</g>
</g>
<g id="Background_Simple" style="display:none;">
	<g style="display:inline;">
		<path style="fill:#407BFF;" d="M183.74,106.857c2.131,43.737,19.84,84.831,77.458,79.701c43.308-3.856,47.445-59.18,97.538-33.834
			c88.543,44.802,16.44,164.683-75.211,178.031C191.874,344.103,83.163,284.309,69.671,177.51
			c-4.406-34.875,2.456-81.721,34.86-102.366C132.695,57.199,181.841,67.872,183.74,106.857z"/>
		<path style="opacity:0.9;fill:#FFFFFF;" d="M183.74,106.857c2.131,43.737,19.84,84.831,77.458,79.701
			c43.308-3.856,47.445-59.18,97.538-33.834c88.543,44.802,16.44,164.683-75.211,178.031
			C191.874,344.103,83.163,284.309,69.671,177.51c-4.406-34.875,2.456-81.721,34.86-102.366
			C132.695,57.199,181.841,67.872,183.74,106.857z"/>
	</g>
</g>
<g id="Shadow_1_">
	<ellipse id="_x3C_Path_x3E__354_" style="fill:#F5F5F5;" cx="250" cy="416.238" rx="193.889" ry="11.323"/>
</g>
<g id="Information_tab">
	<g>
		<g>
			<path style="fill:#407BFF;" d="M409.834,248.663H170.808c-5.465,0-9.659-4.471-9.32-9.936l8.759-141.079
				c0.339-5.465,5.088-9.936,10.553-9.936h239.025c5.465,0,9.659,4.471,9.319,9.936l-8.759,141.079
				C420.048,244.192,415.299,248.663,409.834,248.663z"/>
			<path style="opacity:0.8;fill:#FFFFFF;" d="M409.834,248.663H170.808c-5.465,0-9.659-4.471-9.32-9.936l8.759-141.079
				c0.339-5.465,5.088-9.936,10.553-9.936h239.025c5.465,0,9.659,4.471,9.319,9.936l-8.759,141.079
				C420.048,244.192,415.299,248.663,409.834,248.663z"/>
		</g>
		<path style="opacity:0.4;fill:#FFFFFF;" d="M201.462,128.364H173c-1.557,0-2.74-1.262-2.644-2.819l0.809-13.032
			c0.097-1.557,1.437-2.819,2.994-2.819h28.463L201.462,128.364z"/>
		<path style="fill:#FFFFFF;" d="M419.672,90.196H211.284c-4.116,0-7.66,3.337-7.915,7.452l-2.01,32.372h-28.462
			c-1.557,0-2.897,1.262-2.994,2.819l-0.758,12.204c-0.097,1.557,1.087,2.819,2.644,2.819h28.463l-5.641,90.865
			c-0.256,4.116,2.874,7.452,6.99,7.452h208.388c4.116,0,7.659-3.337,7.915-7.452l8.759-141.079
			C426.917,93.532,423.788,90.196,419.672,90.196z"/>
		<path style="opacity:0.4;fill:#FFFFFF;" d="M199.041,167.36h-28.462c-1.557,0-2.74-1.262-2.644-2.819l0.758-12.204
			c0.097-1.557,1.437-2.819,2.994-2.819h28.463L199.041,167.36z"/>
		<path style="opacity:0.4;fill:#FFFFFF;" d="M197.831,186.857h-28.463c-1.557,0-2.74-1.262-2.644-2.819l0.758-12.204
			c0.097-1.557,1.437-2.819,2.994-2.819h28.463L197.831,186.857z"/>
		<path style="opacity:0.4;fill:#FFFFFF;" d="M196.62,206.355h-28.463c-1.557,0-2.74-1.262-2.644-2.819l0.758-12.204
			c0.097-1.557,1.437-2.819,2.994-2.819h28.463L196.62,206.355z"/>
		<path style="opacity:0.4;fill:#FFFFFF;" d="M195.409,225.853h-28.462c-1.557,0-2.74-1.262-2.644-2.819l0.758-12.204
			c0.097-1.557,1.437-2.819,2.994-2.819h28.463L195.409,225.853z"/>
		<path style="opacity:0.2;fill:#407BFF;" d="M172.626,145.587c-0.332,0-0.632-0.126-0.847-0.354
			c-0.215-0.23-0.323-0.54-0.302-0.874l0.666-10.715c0.045-0.732,0.702-1.351,1.433-1.351h24.127c0.332,0,0.632,0.126,0.847,0.354
			c0.215,0.229,0.322,0.539,0.302,0.873l-0.666,10.715c-0.045,0.732-0.701,1.351-1.433,1.351H172.626z"/>
		<path style="opacity:0.3;fill:#407BFF;" d="M252.976,107.005h-34.409c-2.631,0-4.651-2.153-4.487-4.784v0
			c0.163-2.631,2.45-4.784,5.081-4.784h34.409c2.631,0,4.65,2.153,4.487,4.784v0C257.894,104.852,255.607,107.005,252.976,107.005z"
			/>
		<path style="fill:#407BFF;" d="M416.959,102.221c-0.164,2.642-2.439,4.784-5.081,4.784c-2.642,0-4.651-2.142-4.487-4.784
			c0.164-2.642,2.439-4.784,5.081-4.784C415.114,97.437,417.123,99.579,416.959,102.221z"/>
		<g>
			<path style="opacity:0.4;fill:#407BFF;" d="M319.535,188.839H217.979c-5.23,0-9.22-4.255-8.895-9.484l3.064-49.344
				c0.325-5.23,4.843-9.484,10.073-9.484h101.556c5.23,0,9.221,4.255,8.896,9.484l-3.064,49.344
				C329.284,184.584,324.765,188.839,319.535,188.839z M222.195,120.941c-5.001,0-9.323,4.069-9.633,9.07l-3.064,49.344
				c-0.311,5.001,3.506,9.07,8.507,9.07h101.556c5.002,0,9.323-4.069,9.634-9.07l3.064-49.344c0.31-5.001-3.506-9.07-8.508-9.07
				H222.195z"/>
			<g>
				<g>
					<path style="fill:#407BFF;" d="M230.335,153.345l14.568,9.421c2.911-4.249,6.811-7.785,11.328-10.261l-7.829-15.525
						C241.198,140.93,234.978,146.568,230.335,153.345z"/>
					<path style="opacity:0.8;fill:#FFFFFF;" d="M230.335,153.345l14.568,9.421c2.911-4.249,6.811-7.785,11.328-10.261
						l-7.829-15.525C241.198,140.93,234.978,146.568,230.335,153.345z"/>
				</g>
				<path style="fill:#263238;" d="M221.551,178.604h17.844c0.361-5.815,2.358-11.241,5.508-15.838l-14.568-9.421
					C225.311,160.677,222.127,169.329,221.551,178.604z"/>
				<path style="fill:#407BFF;" d="M272.363,130.762c-8.575,0-16.756,2.267-23.962,6.218l7.829,15.525
					c4.518-2.477,9.648-3.899,15.025-3.899c16.568,0,29.164,13.431,28.136,29.998h17.844
					C318.875,152.182,298.785,130.762,272.363,130.762z"/>
			</g>
		</g>
		<g>
			<path style="fill:#407BFF;" d="M260.781,206.986h-52.297c-0.502,0-0.883-0.407-0.852-0.909l0.228-3.68
				c0.031-0.502,0.463-0.909,0.965-0.909h52.297L260.781,206.986z"/>
			<path style="opacity:0.2;fill:#407BFF;" d="M260.781,206.986h65.996c0.502,0,0.934-0.407,0.965-0.909l0.228-3.68
				c0.031-0.502-0.35-0.909-0.852-0.909h-65.996L260.781,206.986z"/>
			<path style="fill:#407BFF;" d="M296.302,221.513h-88.72c-0.502,0-0.883-0.407-0.852-0.909l0.228-3.68
				c0.031-0.502,0.463-0.909,0.965-0.909h88.72L296.302,221.513z"/>
			<path style="opacity:0.2;fill:#407BFF;" d="M296.302,221.513h29.574c0.502,0,0.934-0.407,0.965-0.909l0.228-3.68
				c0.031-0.502-0.35-0.909-0.852-0.909h-29.574L296.302,221.513z"/>
			<path style="fill:#407BFF;" d="M217.101,236.04H206.68c-0.502,0-0.883-0.407-0.852-0.908l0.229-3.68
				c0.031-0.502,0.463-0.909,0.965-0.909h10.421L217.101,236.04z"/>
			<path style="opacity:0.2;fill:#407BFF;" d="M217.101,236.04h107.873c0.502,0,0.934-0.407,0.965-0.908l0.229-3.68
				c0.031-0.502-0.35-0.909-0.852-0.909H217.442L217.101,236.04z"/>
		</g>
		<g>
			<path style="fill:#407BFF;" d="M348.765,236.454c-0.229,0-0.403-0.185-0.388-0.414l7.159-115.306
				c0.014-0.229,0.211-0.414,0.44-0.414c0.229,0,0.402,0.185,0.388,0.414l-7.159,115.306
				C349.191,236.269,348.994,236.454,348.765,236.454z"/>
			<g>
				<path style="fill:#FFFFFF;" d="M356.835,150.937c-0.095,1.524-1.407,2.76-2.932,2.76c-1.524,0-2.683-1.236-2.589-2.76
					c0.095-1.524,1.407-2.76,2.931-2.76C355.77,148.177,356.93,149.412,356.835,150.937z"/>
				<path style="fill:#407BFF;" d="M353.878,154.111c-1.75,0-3.086-1.424-2.977-3.174c0.109-1.75,1.621-3.174,3.371-3.174
					c1.75,0,3.086,1.424,2.977,3.174C357.14,152.687,355.628,154.111,353.878,154.111z M354.22,148.591
					c-1.294,0-2.412,1.052-2.492,2.346c-0.08,1.294,0.907,2.346,2.201,2.346s2.412-1.052,2.492-2.346
					C356.501,149.643,355.514,148.591,354.22,148.591z"/>
			</g>
			<g>
				<path style="fill:#FFFFFF;" d="M355.293,175.778c-0.095,1.524-1.407,2.76-2.931,2.76c-1.524,0-2.683-1.236-2.589-2.76
					c0.095-1.524,1.407-2.76,2.931-2.76C354.228,173.018,355.387,174.253,355.293,175.778z"/>
				<path style="fill:#407BFF;" d="M352.335,178.952c-1.75,0-3.086-1.424-2.977-3.174c0.109-1.751,1.621-3.175,3.371-3.175
					c1.75,0,3.086,1.424,2.977,3.175C355.598,177.528,354.086,178.952,352.335,178.952z M352.678,173.431
					c-1.294,0-2.412,1.053-2.492,2.347c-0.08,1.294,0.907,2.346,2.201,2.346c1.294,0,2.411-1.052,2.492-2.346
					C354.959,174.484,353.972,173.431,352.678,173.431z"/>
			</g>
			<g>
				<polygon style="fill:#FFFFFF;" points="351.783,187.857 348.129,193.57 354.727,193.57 				"/>
				<path style="fill:#407BFF;" d="M354.701,193.984h-6.598c-0.148,0-0.28-0.079-0.346-0.207c-0.066-0.128-0.056-0.286,0.026-0.414
					l3.654-5.714c0.164-0.256,0.585-0.256,0.717,0l2.944,5.714c0.066,0.128,0.056,0.286-0.026,0.414
					C354.99,193.905,354.849,193.984,354.701,193.984z M348.872,193.156h5.163l-2.304-4.472L348.872,193.156z"/>
			</g>
			<path style="fill:#407BFF;" d="M398.447,236.454c-0.229,0-0.402-0.185-0.388-0.414l7.159-115.306
				c0.014-0.229,0.211-0.414,0.44-0.414c0.229,0,0.402,0.185,0.388,0.414l-7.159,115.306
				C398.873,236.269,398.676,236.454,398.447,236.454z"/>
			<g>
				<path style="fill:#FFFFFF;" d="M403.675,196.71c0.095-1.524-1.064-2.76-2.589-2.76c-1.524,0-2.837,1.236-2.931,2.76
					c-0.095,1.524,1.064,2.76,2.589,2.76C402.268,199.47,403.58,198.234,403.675,196.71z"/>
				<path style="fill:#407BFF;" d="M400.718,199.884c-1.75,0-3.086-1.424-2.977-3.174c0.109-1.751,1.621-3.175,3.371-3.175
					s3.086,1.424,2.977,3.175C403.98,198.46,402.468,199.884,400.718,199.884z M401.06,194.363c-1.294,0-2.412,1.053-2.492,2.347
					c-0.08,1.294,0.907,2.346,2.201,2.346s2.412-1.052,2.492-2.346C403.341,195.416,402.354,194.363,401.06,194.363z"/>
			</g>
			<g>
				<path style="fill:#FFFFFF;" d="M407.531,134.597c0.095-1.524-1.064-2.76-2.589-2.76c-1.524,0-2.837,1.236-2.932,2.76
					c-0.095,1.524,1.064,2.76,2.589,2.76C406.124,137.357,407.437,136.122,407.531,134.597z"/>
				<path style="fill:#407BFF;" d="M404.574,137.771c-1.75,0-3.086-1.424-2.977-3.174c0.109-1.75,1.621-3.174,3.371-3.174
					c1.75,0,3.086,1.424,2.977,3.174C407.837,136.347,406.324,137.771,404.574,137.771z M404.917,132.251
					c-1.294,0-2.411,1.052-2.492,2.346c-0.08,1.294,0.907,2.346,2.201,2.346c1.294,0,2.412-1.052,2.492-2.346
					C407.198,133.304,406.211,132.251,404.917,132.251z"/>
			</g>
			<g>
				<polygon style="fill:#FFFFFF;" points="402.64,168.917 399.696,163.203 406.294,163.203 				"/>
				<path style="fill:#407BFF;" d="M402.615,169.331c-0.148,0-0.28-0.079-0.346-0.207l-2.944-5.714
					c-0.066-0.128-0.056-0.286,0.026-0.414c0.082-0.128,0.224-0.207,0.371-0.207h6.598c0.148,0,0.28,0.079,0.346,0.207
					c0.066,0.128,0.056,0.286-0.026,0.414l-3.654,5.714C402.904,169.252,402.763,169.331,402.615,169.331z M400.388,163.617
					l2.304,4.472l2.859-4.472H400.388z"/>
			</g>
			<path style="fill:#407BFF;" d="M373.606,236.454c-0.229,0-0.402-0.185-0.388-0.414l7.159-115.306
				c0.014-0.229,0.211-0.414,0.44-0.414c0.229,0,0.403,0.185,0.388,0.414l-7.159,115.306
				C374.032,236.269,373.835,236.454,373.606,236.454z"/>
			<g>
				<path style="fill:#FFFFFF;" d="M381.236,158.021c-0.095,1.524-1.407,2.76-2.931,2.76c-1.524,0-2.683-1.236-2.589-2.76
					c0.095-1.524,1.407-2.76,2.931-2.76C380.172,155.261,381.331,156.497,381.236,158.021z"/>
				<path style="fill:#407BFF;" d="M378.279,161.195c-1.75,0-3.086-1.424-2.977-3.174c0.109-1.75,1.621-3.174,3.371-3.174
					c1.75,0,3.086,1.424,2.977,3.174C381.542,159.771,380.029,161.195,378.279,161.195z M378.622,155.675
					c-1.294,0-2.412,1.052-2.492,2.346c-0.08,1.294,0.907,2.346,2.201,2.346s2.412-1.052,2.492-2.346
					C380.902,156.727,379.915,155.675,378.622,155.675z"/>
			</g>
			<g>
				<path style="fill:#FFFFFF;" d="M377.807,213.256c-0.095,1.524-1.407,2.76-2.932,2.76c-1.524,0-2.683-1.236-2.589-2.76
					c0.095-1.524,1.407-2.76,2.931-2.76C376.742,210.496,377.901,211.732,377.807,213.256z"/>
				<path style="fill:#407BFF;" d="M374.849,216.431c-1.75,0-3.086-1.424-2.977-3.175c0.109-1.75,1.621-3.174,3.371-3.174
					c1.75,0,3.086,1.424,2.977,3.174C378.112,215.007,376.6,216.431,374.849,216.431z M375.192,210.91
					c-1.294,0-2.412,1.052-2.492,2.346c-0.08,1.294,0.907,2.347,2.201,2.347c1.294,0,2.412-1.053,2.492-2.347
					C377.473,211.962,376.486,210.91,375.192,210.91z"/>
			</g>
			<g>
				<polygon style="fill:#FFFFFF;" points="380.456,126.123 376.803,131.837 383.4,131.837 				"/>
				<path style="fill:#407BFF;" d="M383.375,132.251h-6.598c-0.148,0-0.28-0.079-0.346-0.207c-0.066-0.128-0.056-0.286,0.026-0.414
					l3.654-5.714c0.164-0.256,0.585-0.256,0.717,0l2.944,5.714c0.066,0.128,0.056,0.286-0.026,0.414
					C383.664,132.173,383.523,132.251,383.375,132.251z M377.546,131.423h5.163l-2.304-4.472L377.546,131.423z"/>
			</g>
		</g>
	</g>
</g>
<g id="Character_1_">
	<g>
		<g>
			<path style="fill:#407BFF;" d="M111.539,155.807l-1.014,4.874l-0.997,4.994c-0.656,3.325-1.22,6.647-1.732,9.905
				c-0.252,1.632-0.454,3.243-0.627,4.831c-0.194,1.587-0.323,3.132-0.402,4.617c-0.088,1.484-0.063,2.897-0.014,4.084
				c0.037,1.17,0.253,2.169,0.206,2.281l-0.668-1.151c-0.305-0.303-0.85-0.577-0.942-0.448c-0.105,0.098,0.259,0.36,0.897,0.527
				c0.633,0.169,1.53,0.292,2.513,0.345c0.994,0.048,2.082-0.001,3.222-0.081c2.287-0.155,4.74-0.539,7.233-1
				c1.247-0.238,2.515-0.48,3.777-0.765l3.741-0.811l0.498-0.108c2.831-0.614,5.624,1.184,6.238,4.015
				c0.45,2.077-0.401,4.134-2.002,5.325l-1.863,1.382l-1.848,1.255c-1.251,0.799-2.524,1.579-3.841,2.299
				c-2.636,1.447-5.412,2.728-8.466,3.783c-1.531,0.522-3.141,0.954-4.868,1.305c-1.738,0.34-3.588,0.594-5.685,0.546
				c-2.085-0.047-4.448-0.32-7.057-1.345c-2.593-0.979-5.359-3.026-7.195-5.607c-0.196-0.276-0.37-0.562-0.52-0.855l-0.148-0.296
				c-1.576-3.131-2.113-5.675-2.556-8.039c-0.421-2.358-0.557-4.527-0.639-6.618c-0.071-2.091-0.066-4.121,0.005-6.101
				c0.095-1.978,0.23-3.928,0.412-5.846c0.344-3.842,0.911-7.586,1.559-11.293c0.343-1.85,0.685-3.695,1.101-5.527
				c0.207-0.917,0.407-1.834,0.634-2.752l0.733-2.833c1.448-5.598,7.16-8.963,12.758-7.515c5.427,1.404,8.755,6.814,7.634,12.244
				L111.539,155.807z"/>
			<path style="opacity:0.2;" d="M111.539,155.807l-1.014,4.874l-0.997,4.994c-0.656,3.325-1.22,6.647-1.732,9.905
				c-0.252,1.632-0.454,3.243-0.627,4.831c-0.194,1.587-0.323,3.132-0.402,4.617c-0.088,1.484-0.063,2.897-0.014,4.084
				c0.037,1.17,0.253,2.169,0.206,2.281l-0.668-1.151c-0.305-0.303-0.85-0.577-0.942-0.448c-0.105,0.098,0.259,0.36,0.897,0.527
				c0.633,0.169,1.53,0.292,2.513,0.345c0.994,0.048,2.082-0.001,3.222-0.081c2.287-0.155,4.74-0.539,7.233-1
				c1.247-0.238,2.515-0.48,3.777-0.765l3.741-0.811l0.498-0.108c2.831-0.614,5.624,1.184,6.238,4.015
				c0.45,2.077-0.401,4.134-2.002,5.325l-1.863,1.382l-1.848,1.255c-1.251,0.799-2.524,1.579-3.841,2.299
				c-2.636,1.447-5.412,2.728-8.466,3.783c-1.531,0.522-3.141,0.954-4.868,1.305c-1.738,0.34-3.588,0.594-5.685,0.546
				c-2.085-0.047-4.448-0.32-7.057-1.345c-2.593-0.979-5.359-3.026-7.195-5.607c-0.196-0.276-0.37-0.562-0.52-0.855l-0.148-0.296
				c-1.576-3.131-2.113-5.675-2.556-8.039c-0.421-2.358-0.557-4.527-0.639-6.618c-0.071-2.091-0.066-4.121,0.005-6.101
				c0.095-1.978,0.23-3.928,0.412-5.846c0.344-3.842,0.911-7.586,1.559-11.293c0.343-1.85,0.685-3.695,1.101-5.527
				c0.207-0.917,0.407-1.834,0.634-2.752l0.733-2.833c1.448-5.598,7.16-8.963,12.758-7.515c5.427,1.404,8.755,6.814,7.634,12.244
				L111.539,155.807z"/>
		</g>
		<path style="fill:#263238;" d="M86.235,411.576c0,0-9.466-8.586-9.26-11.298l-7.867-4.028l-4.678,8.081l4.346,2.431l1.181-0.361
			l0.792,1.371c3.923,2.009,12.48,5.91,15.474,5.8C86.8,412.274,86.235,411.576,86.235,411.576z"/>
		<path style="fill:#263238;" d="M86.908,310.623c5.722-40.966,3.854-65.87,9.861-86.061l37.201-2.993
			c0,0-16.487,64.994-24.047,92.057c-7.589,27.168-31.23,88.421-31.23,88.421l-10.355-5.302
			C68.339,396.745,76.835,342.315,86.908,310.623z"/>
		<path style="opacity:0.2;" d="M117.251,251.866c-2.533,5.855-7.471,43.427-7.451,62.189c0.04-0.14,0.08-0.289,0.12-0.429
			c2.655-9.509,6.418-23.711,10.179-38.13L117.251,251.866z"/>
		<path style="fill:#263238;" d="M146.001,412.923c0,0-15.43-3.502-16.137-6.01l-9.79,0l-0.813,9.325h5.441l1.005-0.859l1.211,0.859
			c4.408,0,17.126,0.037,19.863-1.596C146.803,413.231,146.001,412.923,146.001,412.923z"/>
		<path style="fill:#263238;" d="M119.873,311.772c-8.172-55.516-8.172-89.882-8.172-89.882l36.404-0.587
			c0,0-4.371,66.201-5.891,93.929c-1.577,28.831-10.578,92.282-10.578,92.282h-12.689
			C118.947,407.515,116.042,347.416,119.873,311.772z"/>
		<path style="fill:#7F3E3B;" d="M115.922,117.674c-1.727,10.882-4.871,16.73-6.976,22.139c3.673,3.414,11.534,7.651,19.468,7.536
			s6.483-5.481,4.355-8.245c-5.685-2.868-5.906-5.768-4.516-8.317L115.922,117.674z"/>
		<path style="fill:#263238;" d="M102.319,141.354c0,0,5.063-5.953,7.058-6.95c1.995-0.997,17.129,1.049,20.703,1.714
			c3.574,0.665,7.919,5.984,7.919,5.984L102.319,141.354z"/>
		<path style="fill:#263238;" d="M140.98,116.758c-0.161,0.717,0.09,1.38,0.56,1.481c0.47,0.101,0.982-0.398,1.143-1.115
			c0.161-0.717-0.09-1.38-0.56-1.481C141.652,115.543,141.141,116.042,140.98,116.758z"/>
		<path style="fill:#630F0F;" d="M140.712,117.751c0,0,0.706,4.487,2.058,6.87c-1.538,0.91-3.58-0.097-3.58-0.097L140.712,117.751z"
			/>
		<path style="fill:#263238;" d="M143.462,112.631c-0.117,0.076-0.269,0.094-0.406,0.034c-1.739-0.76-3.052,0.072-3.107,0.107
			c-0.199,0.13-0.465,0.074-0.594-0.126c-0.129-0.2-0.074-0.466,0.124-0.598c0.073-0.046,1.744-1.132,3.922-0.179
			c0.217,0.095,0.316,0.35,0.221,0.57C143.588,112.521,143.531,112.586,143.462,112.631z"/>
		<path style="fill:#7F3E3B;" d="M117.184,109.459c-1.435,8.92-2.73,14.072,0.715,19.551c5.183,8.241,16.991,6.557,21.073-1.778
			c3.674-7.501,5.404-20.829-2.455-26.194C128.776,95.754,118.62,100.538,117.184,109.459z"/>
		<path style="fill:#263238;" d="M133.389,118c7.222,1.556,5.118-7.365,3.396-8.253c4.333,2.604,7.215-0.413,6.954-3.135
			c3.316-0.555,3.15-6.055,0.872-6.167c-1.444-3.778-8.174-6.944-9.42-4.611c-3.635-4.222-13.349-3.5-11.937-0.444
			c-3.698-0.722-11.553-0.389-8.921,5.167c-5.611,0.722-5.347,10.326-1.681,11.326c-3.833,2.12-0.124,9.359,1.525,13.899
			C115.794,130.232,132.307,126.278,133.389,118z"/>
		<path style="fill:#7F3E3B;" d="M129.278,117.089c-0.33,2.134,0.251,4.143,1.187,5.456c1.408,1.975,3.588,0.746,4.432-1.66
			c0.76-2.166,0.943-5.803-1.065-6.893C131.853,112.918,129.655,114.648,129.278,117.089z"/>
		<g>
			<path style="fill:#407BFF;" d="M102.831,140.351c12.299-1.516,29.744-1.377,41.325,0.643c5.897,1.028,10.315,5.952,10.801,11.919
				c1.438,17.665-2.47,48.55-5.844,79.635c-27.251,9.143-54.913-0.123-54.913-0.123c-0.608-6.273,2.771-26.819,4.876-37.791
				c-1.548-11.327-5.474-24.297-7.692-39.339C90.309,147.99,95.504,141.254,102.831,140.351z"/>
		</g>
		<path style="opacity:0.2;" d="M139.843,165.091c1.855,10.642,7.75,23.319,13.136,31.708c0.738-7.351,1.357-14.353,1.755-20.806
			L139.843,165.091z"/>
		<g>
			<path style="fill:#407BFF;" d="M229.935,140.437c-8.443-5.02-19.358-2.246-24.379,6.197c-4.838,8.135-2.421,18.551,5.315,23.792
				c-1.781,2.401-6.981,9.459-8.595,12.173c-1.957,3.292-3.001,6.25-1.62,7.071c1.38,0.821,3.482-1.509,5.439-4.8
				c1.613-2.713,5.331-10.652,6.59-13.364c8.299,4.298,18.603,1.445,23.442-6.692C241.146,156.369,238.378,145.457,229.935,140.437z
				 M234.204,163.669c-4.389,7.382-13.928,9.801-21.304,5.416c-7.382-4.389-9.811-13.926-5.422-21.308
				c4.389-7.382,13.928-9.802,21.31-5.412C236.164,146.751,238.593,156.288,234.204,163.669z"/>
			<path style="opacity:0.2;fill:#407BFF;" d="M234.931,164.102c-4.628,7.783-14.686,10.335-22.463,5.71
				c-7.783-4.628-10.345-14.684-5.717-22.467c4.628-7.783,14.687-10.335,22.47-5.707
				C236.998,146.262,239.559,156.318,234.931,164.102z"/>
		</g>
		<path style="fill:#7F3E3B;" d="M209.428,179.663l-2.165-1.921c-0.814-0.722-1.927-1.007-2.988-0.763l-4.958,1.138
			c-1.982,0.455-3.621,1.842-4.398,3.721l-0.481,1.163c3.373,3.431,9.546,4.654,9.546,4.654l1.721,0.544
			c1.533,0.483,3.09-0.28,3.577-1.755l1.122-3.396C210.792,181.875,210.404,180.528,209.428,179.663z"/>
		<path style="fill:#407BFF;" d="M154.472,149.29l2.019,4.387l2.11,4.478c1.411,2.976,2.898,5.892,4.389,8.722
			c0.752,1.411,1.525,2.788,2.316,4.109c0.771,1.335,1.565,2.615,2.366,3.794c0.792,1.181,1.628,2.248,2.347,3.118
			c0.701,0.865,1.426,1.479,1.438,1.577l-1.232-0.503c0.803,0.444,2.44,0.936,4.36,1.097c1.918,0.174,4.113,0.221,6.371,0.082
			c2.271-0.1,4.627-0.338,7.021-0.622c1.196-0.147,2.409-0.291,3.616-0.47l3.573-0.482l0.497-0.067
			c2.878-0.388,5.526,1.631,5.914,4.509c0.278,2.064-0.687,4.012-2.314,5.091l-1.821,1.202l-1.792,1.083
			c-1.209,0.686-2.432,1.356-3.688,1.969c-1.258,0.604-2.534,1.203-3.846,1.741c-1.315,0.529-2.659,1.027-4.038,1.493
			c-2.774,0.869-5.678,1.651-8.894,2.001c-3.199,0.346-6.762,0.447-10.864-0.662c-0.262-0.071-0.512-0.163-0.75-0.274l-0.482-0.23
			c-3.115-1.479-5.09-3.154-6.859-4.744c-1.752-1.599-3.154-3.225-4.475-4.822c-2.622-3.196-4.771-6.4-6.745-9.641
			c-1.991-3.225-3.738-6.503-5.393-9.801c-0.81-1.658-1.618-3.31-2.357-4.997c-0.372-0.842-0.748-1.684-1.103-2.54l-1.072-2.671
			c-2.154-5.366,0.45-11.462,5.816-13.616c5.196-2.086,11.077,0.29,13.4,5.315L154.472,149.29z"/>
	</g>
</g>
<g id="Plant">
	<g>
		<g>
			<path style="fill:#263238;" d="M362.853,378.84c-1.546-12.086,5.196-21.842,11.716-31.275c7.671-11.1,15.603-22.576,10.913-38.32
				c-1.351-4.533-3.548-8.465-6.311-11.772c-2.768,7.069-7.437,13.274-13.747,17.97c-8.699,6.474-18.972,8.518-26.173,5.208
				c-4.056-1.864-9.041-6.245-9.756-16.53c-0.731-10.523,5.377-17.993,16.338-19.982c10.921-1.979,24.266,1.987,32.976,11.415
				c2.163-6.263,2.835-13.161,1.84-20.249l0.99-0.139c1.046,7.447,0.29,14.692-2.069,21.24c3.02,3.493,5.418,7.686,6.868,12.555
				c4.827,16.204-3.243,27.881-11.048,39.174c-6.708,9.706-13.044,18.874-11.546,30.58L362.853,378.84z M351.517,284.638
				c-1.88,0-3.725,0.16-5.505,0.483c-10.41,1.889-16.212,8.964-15.519,18.929c0.539,7.754,3.711,13.18,9.176,15.691
				c6.87,3.158,16.747,1.155,25.158-5.103c6.301-4.689,10.925-10.923,13.6-18.026C371.37,288.725,361.01,284.638,351.517,284.638z"
				/>
			<path style="fill:#407BFF;" d="M381.569,278.671c-7.921-7.074-8.83-16.403-4.192-18.37
				C383.806,257.573,386.206,268.926,381.569,278.671z"/>
			<path style="fill:#407BFF;" d="M375.562,347.006c-5.658-8.987-5.969-20.218,0.905-21.017
				C382.757,325.258,384.143,335.923,375.562,347.006z"/>
			<path style="fill:#407BFF;" d="M381.751,281.635c-1.091-6.702,2.209-11.704,5.305-10.817
				C391.349,272.049,387.975,278.657,381.751,281.635z"/>
			<path style="fill:#407BFF;" d="M366.175,314.074c-3.469-7.484-1.243-14.417,2.67-14.391
				C374.27,299.718,372.483,308.553,366.175,314.074z"/>
			<path style="fill:#407BFF;" d="M352.864,284.245c-7.145,1.205-12.504-2.287-11.575-5.597
				C342.576,274.06,349.648,277.621,352.864,284.245z"/>
			<path style="fill:#407BFF;" d="M352.864,284.245c-4.389-2.343-5.033-5.824-2.762-6.752
				C353.25,276.205,354.755,280.388,352.864,284.245z"/>
			<path style="fill:#407BFF;" d="M387.279,313.997c-1.73-4.664,0.097-7.697,2.413-6.885
				C392.902,308.237,391.253,312.365,387.279,313.997z"/>
			<path style="fill:#407BFF;" d="M331.11,310.732c-4.945,0.538-7.44-1.974-6.087-4.021
				C326.898,303.873,330.498,306.48,331.11,310.732z"/>
		</g>
		
			<rect x="385.116" y="386.954" transform="matrix(0.1347 -0.9909 0.9909 0.1347 -43.0894 725.5671)" style="fill:#407BFF;" width="17.517" height="1"/>
		
			<rect x="387.268" y="404.289" transform="matrix(0.1348 -0.9909 0.9909 0.1348 -62.3511 738.1745)" style="fill:#407BFF;" width="8.472" height="1"/>
		<path style="fill:#407BFF;" d="M343.962,371.232l5.789,42.337c0.209,1.53,1.516,2.67,3.06,2.67h31.256
			c1.544,0,2.851-1.14,3.06-2.67l5.789-42.337c0.254-1.855-1.188-3.507-3.06-3.507h-42.833
			C345.15,367.725,343.708,369.377,343.962,371.232z"/>
	</g>
</g>
</svg>
